# xmcd CD database file
#
# Track frame offsets:
#	150
#	24823
#	49078
#
# Disc length: 926 seconds
#
# Revision: 1
# Processed by: cddbd v1.5.2PL0 Copyright (c) Steve Scherf et al.
# Submitted via: CDex 1.70beta3
#
DISCID=17039c03
DTITLE=RED WARRIORS - バラとワイン
DYEAR=1987
DGENRE=Rock
TTITLE0=バラとワイン WINE＆ROSES
TTITLE1=I AM THE WALRUS
TTITLE2=BIRTHDAY SONG AnotherTape
EXTD=YEAR: 1987
EXTT0=
EXTT1=
EXTT2=
PLAYORDER=
